<mxfile host="app.diagrams.net" modified="2024-06-03T16:49:24.495Z" agent="Mozilla/5.0 (Macintosh; Intel Mac OS X 10_15_7) AppleWebKit/537.36 (KHTML, like Gecko) Chrome/125.0.0.0 Safari/537.36" version="24.2.2" etag="ejt3Dhpgd3_wcfr2aBx3" type="github">
  <diagram name="Page-1" id="y3DC53cCp_5nE_oFsigc">
    <mxGraphModel>
      <root>
        <mxCell id="0" />
        <mxCell id="1" parent="0" />
      </root>
    </mxGraphModel>
  </diagram>
</mxfile>
